<?xml version="1.0" encoding="UTF-8"?>
<svg width="88px" height="103px" viewBox="0 0 88 103" version="1.1" xmlns="http://www.w3.org/2000/svg" xmlns:xlink="http://www.w3.org/1999/xlink">
    <title>Combined Shape</title>
    <g id="Symbols" stroke="none" stroke-width="1" fill="none" fill-rule="evenodd">
        <g id="Person" transform="translate(-36.000000, -51.000000)" fill="#17103A">
            <path d="M74.2492,115.496 C77.1922,115.099 80.1472,114.997 83.1052,115.188 C89.3252,115.59 95.2172,117.229 100.7902,120.017 C107.8272,123.539 113.7272,128.475 118.7332,134.51 C120.535716,136.682867 122.178956,138.942528 123.673015,141.283204 C120.989366,143.390685 106.956073,154 82.5002,154 C64.7402374,154 49.4660871,149.803701 36.6777493,141.411104 C38.4898057,138.554174 40.5189378,135.827149 42.7832,133.241 C47.8942,127.402 53.8672,122.679 60.9332,119.399 C65.1742,117.431 69.6102,116.121 74.2492,115.496 Z M82.6912,51 C83.1382,51.072 83.5852,51.156 84.0342,51.216 C91.4372,52.2 97.6582,55.462 102.6702,60.981 C106.5152,65.213 108.9532,70.177 109.9442,75.807 C112.8752,92.44 101.9802,107.458 86.5102,110.713 C70.9352,113.992 55.5782,104.817 51.2022,89.534 C46.3672,72.646 56.6742,55.816 73.0762,51.837 C73.7682,51.6695 74.47095,51.5475 75.1767,51.437125 L76.5899037,51.221838 C76.8253389,51.1851944 77.0605333,51.1473333 77.2952,51.107 C77.4272,51.084 77.5552,51.036 77.6862,51 L82.6912,51 Z" id="Combined-Shape"></path>
        </g>
    </g>
</svg>