<svg fill="none" height="48" viewBox="0 0 198 48" width="198" xmlns="http://www.w3.org/2000/svg"><path d="m58.249 15.7406c7.2605 0 8.6672 5.7648 8.6672 8.8514 0 1.2677 0 2.7878-1.6208 2.8987l-.1943.0064h-13.2504c0 4.4938 2.5865 7.3989 6.8521 7.3989 2.6319 0 4.1747-.9986 5.4453-1.9518.2723-.1816.4538-.2724.8168-.2724.7261 0 1.316.5901 1.316 1.3164 0 .4993-.2269.7716-.4992 1.044-.6806.6809-3.0403 2.5419-7.0789 2.5419-6.0353 0-9.8017-3.3136-9.8017-10.9394 0-6.9904 3.4487-10.8941 9.3479-10.8941zm36.4839 0c7.2601 0 8.6671 5.7648 8.6671 8.8514 0 1.2677 0 2.7878-1.621 2.8987l-.194.0064h-13.2504c0 4.4938 2.5865 7.3989 6.8521 7.3989 2.6319 0 4.1747-.9986 5.4453-1.9518.272-.1816.454-.2724.817-.2724.726 0 1.316.5901 1.316 1.3164 0 .4993-.227.7716-.499 1.044-.681.6809-3.0407 2.5419-7.0793 2.5419-6.0353 0-9.8017-3.3136-9.8017-10.9394 0-6.9904 3.4487-10.8941 9.3479-10.8941zm49.4161 0c5.152 0 8.044 2.9567 8.165 7.4232l.004.2934v12.4828c0 .7717-.636 1.4072-1.407 1.4072-.723 0-1.327-.5586-1.4-1.2642l-.007-.143v-1.6341c-1.134 2.1334-3.766 3.2682-6.489 3.2682-4.81 0-7.85-2.3149-7.85-6.491 0-3.9037 2.903-6.2901 7.61-6.3966l.331-.0037h6.398v-1.2256c0-3.0866-2.042-4.9931-5.355-4.9931-2.405 0-3.857.7263-5.263 2.315-.454.4993-.772.6355-1.18.6355-.726 0-1.316-.5901-1.316-1.3164 0-.3177.091-.5447.227-.7716 1.27-1.9973 3.721-3.586 7.532-3.586zm26.365.2724c.723 0 1.327.5585 1.4 1.3015l.007.151v11.8473c0 4.3122-1.407 8.2613-8.44 8.2613-6.864 0-8.387-3.8093-8.439-8.0306l-.002-.2307v-11.8473c0-.817.636-1.4525 1.452-1.4525.724 0 1.367.5585 1.445 1.3015l.007.151v11.8473c0 2.9505.953 5.4924 5.537 5.4924 4.479 0 5.49-2.4277 5.534-5.2919l.002-.2005v-11.8473c0-.817.68-1.4525 1.497-1.4525zm-86.6265 0c.8168 0 1.4521.6355 1.4521 1.4525 0 .2648-.063.435-.1103.5632l-.0258.0723-7.7142 18.3383c-.2723.5901-.7715.9079-1.3614.9079-.5363 0-.9976-.2626-1.2816-.7537l-.0797-.1542-7.7143-18.3383c-.0454-.1362-.1361-.3177-.1361-.6355 0-.817.6353-1.4525 1.4521-1.4525.754 0 1.1213.4254 1.3161.8479l.0452.1053 6.3983 15.6602 6.3983-15.6602c.1815-.4539.5445-.9532 1.3613-.9532zm30.9475-.1816c.772 0 1.407.6355 1.407 1.4071 0 .7717-.635 1.4072-1.407 1.4072-4.077 0-6.207 2.7715-6.304 6.7919l-.003.2892v10.1678c0 .8171-.636 1.4526-1.452 1.4526-.766 0-1.372-.5586-1.445-1.3016l-.007-.151v-18.4291c0-.817.635-1.4525 1.452-1.4525.765 0 1.372.5585 1.444 1.3015l.008.151v1.9973c.907-2.0881 3.176-3.6314 6.307-3.6314zm19.315.1816c.817 0 1.452.6355 1.452 1.4525 0 .2648-.063.435-.11.5632l-.026.0723-7.714 18.3383c-.272.5901-.771.9079-1.361.9079-.537 0-.998-.2626-1.282-.7537l-.08-.1542-7.714-18.3383c-.045-.1362-.136-.3177-.136-.6355 0-.817.635-1.4525 1.452-1.4525.754 0 1.121.4254 1.316.8479l.045.1053 6.399 15.6602 6.398-15.6602c.181-.4539.544-.9532 1.361-.9532zm42.399-11.34802c.766 0 1.372.59843 1.445 1.30906l.007.14348v25.91878c0 1.8157.59 2.5874 1.816 2.5874.726 0 1.361.5901 1.361 1.3617 0 .7717-.635 1.3618-1.361 1.3618-2.949 0-4.617-1.7073-4.715-4.9978l-.005-.3131v-25.91878c0-.77166.681-1.45254 1.452-1.45254zm8.804 5.49242c.765 0 1.372.5984 1.444 1.3091l.008.1434v4.7662h2.949c.772 0 1.362.5901 1.362 1.3618 0 .7202-.514 1.2822-1.21 1.354l-.152.0077h-2.949v12.5282c0 1.9519 1.089 2.9959 2.632 2.9959.771 0 1.406.5901 1.406 1.3617 0 .7717-.635 1.3618-1.406 1.3618-3.486 0-5.427-2.274-5.532-5.4454l-.004-.274v-12.5282h-1.77c-.772 0-1.361-.5901-1.361-1.3617 0-.7203.513-1.2823 1.209-1.3541l.152-.0077h1.77v-4.7662c0-.7716.68-1.4525 1.452-1.4525zm-35.849 17.0674h-6.398c-2.95 0-4.992 1.2256-4.992 3.8583 0 2.3604 1.634 3.8583 5.173 3.8583 3.095 0 6.061-1.853 6.211-5.5171l.006-.2931zm-91.255-8.8515c-3.8467 0-6.0132 2.4133-6.3736 6.2741l-.0247.3078h12.2067c0-3.2682-1.1345-6.5819-5.8084-6.5819zm36.4839 0c-3.8467 0-6.0132 2.4133-6.3736 6.2741l-.0247.3078h12.2064c0-3.2682-1.1342-6.5819-5.8081-6.5819z" fill="#63e"/><path d="m32.4625 39.2328c-2.1895 1.6777-4.9836 3.5172-8.4625 3.5172-10.8 0-15-11.25-15-17.25v-11.691c0-.1894.107-.3625.27639-.4472l14.50001-7.25c.1408-.07038.3064-.07038.4472 0l14.5 7.25c.1694.0847.2764.2578.2764.4472v11.691c0 2.4802-.7176 5.7293-2.3225 8.6878" stroke="#63e" stroke-linecap="round" stroke-width="3"/><circle cx="16.5" cy="19.5" fill="#63e" r="2.25"/><circle cx="31.5" cy="19.5" fill="#63e" r="2.25"/><path d="m16.5 31.5 5.6336 4.9294c.2039.1784.5129.1619.6966-.0372l8.6698-9.3922" stroke="#63e" stroke-linecap="round" stroke-width="3"/></svg>