<svg width="400" height="400" xmlns="http://www.w3.org/2000/svg">

 <g>
  <title>background</title>
  <rect fill="none" id="canvas_background" height="402" width="402" y="-1" x="-1"/>
 </g>
 <g>
  <title>Layer 1</title>
  <g stroke="null" id="svg_1">
   <g stroke="null" id="svg_2">
    <path stroke="null" id="svg_3" d="m396.736966,201.905576c-1.418896,4.562724 -6.148549,8.847233 -11.824133,9.737521c0.918109,1.418896 1.335431,3.17165 1.11286,5.119154c-0.612073,5.286083 -5.675584,9.542771 -11.100774,9.598414c-3.672436,0.027821 -8.652483,-1.558003 -12.15799,-7.09448c-3.143828,-4.924403 -3.588972,-12.742242 -3.3664,-15.107068c-3.839365,3.92283 -6.232013,7.734374 -7.372694,10.377415c-2.559577,5.98162 -3.533329,13.27085 -3.477686,16.692893c0,0 -0.472965,0.445144 -0.918109,0.528608c-1.418896,-0.250393 -2.643041,-0.779002 -3.561151,-1.585825c-1.11286,-1.001574 -1.363253,-1.947504 -1.363253,-1.947504c1.697111,-8.485554 4.395795,-13.771637 8.429911,-19.8089c5.42519,-8.151696 13.799458,-13.187386 23.73173,-16.219928c7.177944,-2.197898 14.634103,-2.670863 19.753257,1.669289c2.754327,2.281362 2.921256,5.564298 2.114433,8.04041zm-42.288663,-4.507081c-1.697111,2.837792 -6.343299,7.400516 -10.015736,9.765342c-7.650909,4.896582 -13.159564,5.23044 -15.913891,3.477686c-0.333858,-0.19475 -0.612073,-0.445144 -0.862466,-0.695537c-2.142255,-2.253541 -1.780575,-6.259835 0.723359,-9.542771c1.224145,-1.613646 2.80997,-2.754327 4.340152,-3.282936c-1.196324,-0.55643 -2.003147,-1.724932 -2.170076,-3.3664c-0.333858,-3.282936 2.142255,-7.595266 5.564298,-9.34802c3.004721,-1.530182 9.487128,-3.060364 14.244602,4.034116c1.86404,2.754327 3.533329,6.677157 4.089759,8.958519l0,0zm31.438282,-29.824636c-0.417322,-4.089759 -4.785296,-5.592119 -9.598414,-3.533329c-2.281362,0.973752 -4.284509,2.61522 -5.703405,4.47926c0.222572,-1.86404 -0.306036,-3.505508 -1.641468,-4.47926c-2.643041,-1.919683 -7.456159,-0.500787 -10.739095,3.060364c-1.140681,1.251967 -4.86876,5.759048 -5.063511,12.380562c-0.083464,3.199471 1.335431,10.293951 6.009442,15.190533l0,0c12.464027,-4.701832 19.169006,-11.907597 21.728583,-14.884496c2.949078,-3.449865 4.201045,-6.482407 4.729653,-8.708126c0.389501,-1.752754 0.333858,-3.004721 0.278215,-3.505508z" fill="#82C341"/>
    <path stroke="null" id="svg_4" d="m380.878718,179.787492c2.949078,-3.449865 4.201045,-6.482407 4.729653,-8.708126c0.027821,-0.111286 0.055643,-0.222572 0.083464,-0.361679c-0.612073,2.476112 -5.842513,8.875055 -13.0761,14.328067c-7.511802,5.647762 -11.796311,8.485554 -13.437779,9.598414c12.436205,-4.67401 19.141184,-11.879776 21.700761,-14.856675z" fill="#3CB14A"/>
    <path stroke="null" id="svg_5" d="m344.432568,207.136016c3.672436,-2.364827 8.318625,-6.927551 10.015736,-9.765342l0,0c-3.282936,3.116007 -8.123875,7.762195 -16.4425,11.434632c-4.11758,1.752754 -8.151696,2.420469 -9.487128,1.780575c2.754327,1.780575 8.262982,1.446717 15.913891,-3.449865z" fill="#3CB14A"/>
    <path stroke="null" id="svg_6" d="m396.736966,201.905576c0.19475,-0.612073 0.333858,-1.251967 0.389501,-1.919683c-0.389501,2.643041 -2.170076,5.842513 -5.007868,7.595266c-2.503934,1.558003 -5.397369,2.587398 -8.680304,2.309184c0.528608,0.500787 0.945931,0.918109 1.474539,1.724932l0,0l0,0c5.675584,-0.862466 10.405237,-5.146975 11.824133,-9.709699z" fill="#3CB14A"/>
    <path stroke="null" id="svg_7" d="m360.17953,199.123427l0,0c-0.027821,0.027821 -0.055643,0.027821 -0.055643,0.055643c0,-0.027821 0.027821,-0.055643 0.055643,-0.055643c0,0 0,0 0,0z" fill="#F9ED32"/>
    <path stroke="null" id="svg_8" d="m360.123887,199.151248c-8.930698,6.398942 -11.96324,17.917039 -12.464027,32.578963l0,0c0.445144,-0.083464 0.918109,-0.528608 0.918109,-0.528608c-0.055643,-3.422043 0.918109,-10.683452 3.477686,-16.692893c1.140681,-2.643041 3.533329,-6.454585 7.372694,-10.377415c0.278215,-2.61522 0.584251,-4.145402 0.779002,-5.007868c-0.055643,0 -0.083464,0.027821 -0.083464,0.027821z" fill="#3CB14A"/>
   </g>
   <g stroke="null" id="svg_9">
    <path stroke="null" id="svg_10" d="m225.662633,214.50871c5.174797,-2.61522 7.038837,-7.929124 7.038837,-12.185812c0,-4.757475 -1.446717,-8.513375 -4.256688,-11.267703c-0.250393,-0.250393 -0.500787,-0.472965 -0.779002,-0.695537l4.451438,-7.428337l-6.593693,0l-2.837792,4.757475c-2.170076,-0.723359 -4.451438,-1.057217 -6.53805,-1.057217c-4.145402,0 -8.290804,1.474539 -11.351167,4.061937c-2.420469,2.05879 -5.313904,5.731227 -5.313904,11.629382c0,10.238308 7.706552,12.742242 15.162711,15.190533l4.145402,1.30761c4.423617,1.30761 7.09448,2.114433 7.09448,5.592119c0,1.585825 -0.55643,2.949078 -1.669289,3.978473c-1.724932,1.641468 -4.757475,2.531755 -8.096053,2.337005c-2.921256,-0.166929 -9.125448,-0.75118 -9.90445,-7.122301l-6.398942,0c0,8.123875 7.261408,13.27085 16.275571,13.27085c5.78687,0 10.071379,-1.641468 12.936992,-4.423617c2.253541,-2.170076 3.449865,-4.980046 3.449865,-8.123875c0.055643,-4.451438 -2.364827,-7.929124 -6.816265,-9.820985zm-1.029395,-5.953799c-1.085038,1.808397 -3.004721,3.588972 -5.397369,4.11758c0,0 -4.507081,-1.279788 -7.428337,-2.281362c-3.950651,-1.363253 -5.78687,-3.92283 -5.78687,-8.068232c0,-6.565871 5.258261,-9.570592 10.154843,-9.570592c4.86876,0 10.0992,3.060364 10.0992,9.542771c0,2.643041 -0.639894,4.590546 -1.641468,6.259835z" fill="#006472"/>
    <g stroke="null" id="svg_11">
     <rect stroke="null" id="svg_12" height="32.439856" width="6.565871" fill="#006472" y="187.688795" x="150.572436"/>
     <path stroke="null" id="svg_13" d="m150.182935,179.592742c0,-2.05879 1.363253,-3.533329 3.700258,-3.533329c2.281362,0 3.644615,1.474539 3.644615,3.533329c0,2.170076 -1.363253,3.644615 -3.644615,3.644615c-2.364827,-0.027821 -3.700258,-1.474539 -3.700258,-3.644615z" fill="#006472"/>
    </g>
    <path stroke="null" id="svg_14" d="m27.601457,178.173846l-6.816265,0l-17.94486,41.954805l7.066658,0l4.562724,-10.65563l19.44722,0l4.562724,10.65563l7.066658,0l-17.94486,-41.954805zm-10.766916,25.512305l7.317051,-17.138037l7.317051,17.138037l-14.634103,0z" fill="#006472"/>
    <polygon stroke="null" id="svg_15" points="125.08795166015625,178.17384338378906 118.188232421875,178.17384338378906 118.188232421875,220.128662109375 146.56614685058594,220.128662109375 146.56614685058594,214.34178161621094 125.08795166015625,214.34178161621094 " fill="#006472"/>
    <g stroke="null" id="svg_16">
     <path stroke="null" id="svg_17" d="m278.968605,188.245225c-3.505508,1.558003 -5.42519,4.367974 -5.564298,7.623088c-0.361679,7.595266 5.453012,9.375842 13.243029,10.46088c6.204192,0.862466 9.765342,1.780575 9.598414,4.896582c-0.055643,0.945931 -0.834645,2.142255 -1.975326,2.698684c-4.173223,2.086612 -14.77321,0.973752 -19.753257,-2.114433l-1.363253,5.536476c3.004721,1.947504 7.511802,3.088185 11.796311,3.282936c4.646189,0.222572 9.34802,-0.111286 12.742242,-1.724932c3.310757,-1.585825 5.035689,-4.534903 5.174797,-7.678731c0.333858,-7.456159 -6.621514,-9.069805 -13.131743,-10.210486c-7.400516,-1.279788 -10.0992,-2.030969 -9.90445,-5.23044c0.083464,-1.50236 1.474539,-2.476112 2.587398,-2.80997c4.034116,-1.251967 12.51967,-0.417322 17.499716,2.309184l1.30761,-5.592119c-6.482407,-3.255114 -16.303392,-4.089759 -22.257191,-1.446717z" fill="#006472"/>
    </g>
    <path stroke="null" id="svg_18" d="m178.950354,187.104544c-7.205766,0 -12.046705,1.029395 -14.300245,1.669289l-0.250393,0.083464l0,31.271353l6.649336,0l0,-26.680807c2.253541,-0.528608 4.034116,-0.695537 7.567445,-0.695537c5.42519,0 9.069805,1.363253 9.069805,8.012589l0,19.335934l6.565871,0l0,-19.029898c-0.027821,-9.236734 -5.174797,-13.966387 -15.301819,-13.966387z" fill="#006472"/>
    <path stroke="null" id="svg_19" d="m260.689887,214.425246c-2.142255,0.472965 -4.089759,0.639894 -7.567445,0.639894c-5.592119,0 -9.069805,-1.335431 -9.069805,-7.956946l0,-19.391577l-6.565871,0l0,19.085541c0,9.236734 5.146975,13.938566 15.273997,13.938566c6.788443,0 11.017309,-0.834645 14.272424,-1.669289l0.278215,-0.055643l0,-31.299175l-6.649336,0l0,26.708629l0.027821,0z" fill="#006472"/>
    <g stroke="null" id="svg_20">
     <path stroke="null" id="svg_21" d="m98.351502,187.104544c-4.340152,0 -7.956946,0.834645 -10.377415,2.559577c-3.616794,2.559577 -5.035689,6.426764 -5.035689,11.434632l0,19.029898l6.565871,0l0,-19.335934c0,-2.364827 0.472965,-4.061937 1.30761,-5.258261c1.50236,-2.197898 4.256688,-2.754327 7.762195,-2.754327c1.641468,0 3.505508,0.19475 5.341726,0.55643l1.30761,-5.536476c-2.05879,-0.417322 -4.340152,-0.695537 -6.871908,-0.695537z" fill="#006472"/>
    </g>
    <path stroke="null" id="svg_22" d="m77.234992,200.737073c-0.779002,-8.930698 -6.092906,-13.604708 -15.524391,-13.604708c-10.210486,0 -15.635677,5.508655 -15.635677,15.969534l0,1.641468c0,10.46088 5.98162,15.969534 17.277144,15.969534c4.590546,0 8.958519,-0.667716 12.686599,-1.947504l-1.391074,-5.508655l-0.306036,0.111286c-2.142255,0.806823 -6.148549,1.697111 -10.989488,1.697111c-4.729653,0 -10.349594,-1.50236 -10.488701,-8.513375l24.455088,0l0,-3.422043c0,-0.862466 -0.027821,-1.641468 -0.083464,-2.392648zm-15.524391,-7.956946c3.92283,0 8.569018,1.418896 8.902876,7.956946l-17.722288,0c0.250393,-5.202618 3.282936,-7.956946 8.819412,-7.956946z" fill="#006472"/>
   </g>
  </g>
 </g>
</svg>