<svg width="400" height="400" xmlns="http://www.w3.org/2000/svg">

 <g>
  <title>background</title>
  <rect fill="none" id="canvas_background" height="402" width="402" y="-1" x="-1"/>
 </g>
 <g>
  <title>Layer 1</title>
  <g stroke="null" id="svg_2">
   <path stroke="null" id="svg_3" d="m3.219986,266.865505c0,0 225.768291,-55.463473 393.043528,-16.390179l0.516483,-1.804972c0,0 -145.958083,-43.101862 -390.756052,9.398631" fill="#ED174C"/>
   <path stroke="null" id="svg_4" d="m111.292685,158.026237l0,9.193397c0.831809,-1.84031 1.88924,-4.335738 4.727178,-6.697968c3.073074,-2.624549 7.563757,-4.07342 11.94027,-4.07342c2.238546,0 4.485247,0.399595 6.725152,1.186552c6.97252,2.624549 8.982726,8.137325 9.809099,10.498196c5.439381,-10.105397 14.060569,-11.546112 18.666781,-11.546112c5.667721,0 10.634112,2.103988 13.942321,5.383655c5.905575,5.775095 6.14071,12.068032 6.14071,27.828917l0,36.231279l-17.360623,0l0,-32.166015c0,-10.899149 -0.236495,-13.1309 -2.011565,-16.012331c-1.88924,-3.151905 -4.61029,-3.815178 -7.211733,-3.815178c-4.721742,0 -7.082612,3.414224 -7.438714,3.94294c-1.894677,3.281026 -1.894677,8.927 -1.894677,14.439776l0,33.608089l-17.361982,0l0,-34.261848c0,-7.351727 0,-10.634112 -1.77507,-13.656897c-1.298003,-2.226313 -3.899446,-4.07206 -7.08669,-4.07206c-1.533139,0 -3.073074,0.396876 -4.492043,1.18927c-5.08192,2.88279 -5.19745,7.875006 -5.19745,20.742227l0,30.060667l-17.372856,0l0,-68.003136" fill="#004B85"/>
   <polyline stroke="null" id="svg_5" points="252.31699466705322,158.0262451171875 270.033730506897,158.0262451171875 252.31699466705322,226.02801513671875 236.12117862701416,226.02801513671875 225.84044742584229,180.08413696289062 215.6861047744751,226.02801513671875 199.26604557037354,226.02801513671875 181.54253482818604,158.0262451171875 199.26604557037354,158.0262451171875 208.5994348526001,200.5613250732422 218.16794681549072,158.0262451171875 233.52515506744385,158.0262451171875 242.98362064361572,200.5613250732422 " fill="#004B85"/>
   <path stroke="null" id="svg_6" d="m307.403981,226.028013l17.018113,0l0,-68.130897l-16.663371,0l0,8.793802c-3.066278,-6.562052 -8.384693,-10.370434 -15.120718,-10.370434c-11.574655,0 -26.702169,9.978994 -26.702169,36.758636c0,21.266865 10.86653,34.396406 25.401447,34.396406c9.924628,0 13.939603,-5.776454 16.063979,-8.928359m-0.890254,-27.308357c0,6.17469 -0.826373,12.081624 -4.490683,16.546483c-3.073074,3.539267 -6.496812,3.807023 -7.562398,3.807023c-3.425097,0 -7.323185,-2.102629 -9.690851,-8.013641c-1.412173,-3.410147 -1.88924,-7.482207 -1.88924,-11.683388c0,-5.250457 0.717639,-10.634112 3.664311,-14.963055c2.124376,-3.024144 5.432585,-4.986779 8.627984,-4.986779c2.594647,0 5.19609,1.304799 6.969802,3.408787c2.242623,2.498146 4.371077,7.090767 4.371077,15.884569z" fill="#004B85"/>
   <path stroke="null" id="svg_7" d="m364.529714,158.026237l17.652844,0l-19.426555,67.477139c-1.418969,4.727178 -3.657515,12.475782 -7.088049,16.281446c-3.19268,3.414224 -6.97252,4.992216 -21.03173,4.992216c-2.010206,0 -2.832501,-0.137276 -4.607572,-0.265037l0,-15.098971l4.607572,0c1.655464,0 5.553551,0 7.323185,-1.703035c1.418969,-1.186552 2.601443,-4.07206 2.601443,-6.832526c0,-1.440716 -0.712203,-4.07342 -1.299362,-5.776454l-18.904635,-59.074777l18.904635,0l11.104384,45.814756" fill="#004B85"/>
   <path stroke="null" id="svg_8" d="m44.238247,133.134477l-29.170414,92.893537l21.427247,0l5.443459,-19.736445l27.357287,0l5.569861,19.736445l21.548213,0l-30.388226,-92.893537m-10.774106,20.399718l9.322517,35.786832l-18.150298,0l8.827781,-35.786832z" fill="#004B85"/>
  </g>
 </g>
</svg>