<svg width="400" height="400" xmlns="http://www.w3.org/2000/svg">
 <defs>
  <clipPath clipPathUnits="userSpaceOnUse" id="clipPath35140">
   <path clip-rule="evenodd" d="m0.000001,0.000305l594.959999,0l0,842.040005l-594.959999,0l0,-842.040005z" id="path35138"/>
  </clipPath>
  <clipPath clipPathUnits="userSpaceOnUse" id="clipPath35150">
   <path d="m0,0l283.66,0l0,90.686l-283.66,0l0,-90.686z" id="path35148"/>
  </clipPath>
  <clipPath clipPathUnits="userSpaceOnUse" id="clipPath35164">
   <path clip-rule="evenodd" d="m0,90.686l0,-91.24528l284.13,0l0,91.24528" id="path35162"/>
  </clipPath>
  <clipPath clipPathUnits="userSpaceOnUse" id="clipPath35174">
   <path clip-rule="evenodd" d="m0,90.686l0,-91.24528l284.13,0l0,91.24528" id="path35172"/>
  </clipPath>
  <clipPath clipPathUnits="userSpaceOnUse" id="clipPath35184">
   <path clip-rule="evenodd" d="m0,90.686l0,-91.24528l284.13,0l0,91.24528" id="path35182"/>
  </clipPath>
  <clipPath clipPathUnits="userSpaceOnUse" id="clipPath35194">
   <path clip-rule="evenodd" d="m0,90.686l0,-91.24528l284.13,0l0,91.24528" id="path35192"/>
  </clipPath>
 </defs>
 <metadata id="metadata37568">image/svg+xml</metadata>
 <g>
  <title>background</title>
  <rect fill="none" id="canvas_background" height="402" width="402" y="-1" x="-1"/>
 </g>
 <g>
  <title>Layer 1</title>
  <g stroke="null" id="layer1">
   <g stroke="null" id="g37757">
    <path fill="#181e53" fill-rule="nonzero" stroke-width="0.105762" d="m4.01355,137.232693l0,0l1.867085,0l0,52.332389l-1.867085,0l0,-52.332389z" id="path35166"/>
    <path fill="#59c8d7" fill-rule="nonzero" stroke-width="0.105762" d="m19.157117,137.232693l0,0l15.662093,0l0,52.332389l-15.662093,0l0,-52.332389z" id="path35176"/>
    <path fill="#181e53" fill-rule="nonzero" stroke-width="0.105762" d="m46.747263,137.232693l0,0l7.780501,0l0,52.332389l-7.780501,0l0,-52.332389z" id="path35186"/>
    <path fill="#181e53" fill-rule="nonzero" stroke-width="0.105762" d="m227.11719,176.896707l0,0c-11.198063,0 -15.442259,4.673009 -17.101149,6.438612l-2.599037,-5.295632l-20.543689,0l0,11.525395l4.783384,0l0,73.202232l16.174995,0l0,-28.035045c3.317911,3.011111 8.612758,5.295763 15.248711,5.295763c21.359206,0 30.0826,-15.57565 30.0826,-33.0193c0,-17.755027 -10.686469,-30.112025 -26.045816,-30.112025zm9.760315,30.734648l0,0c0,12.356998 -5.917078,19.728302 -15.663531,19.728302c-9.539043,0 -13.907606,-6.022091 -13.907606,-18.896568c0,-13.290998 4.368563,-19.001843 14.529836,-19.001843c9.124222,0 15.0413,7.163763 15.0413,18.170109zm138.883292,3.94655l0,0l0,1.038359c0,7.476448 -1.659021,16.094437 -14.00451,16.094437c-6.013721,0 -9.746453,-3.322357 -9.746453,-8.514284c0,-4.465337 1.755795,-8.617989 14.834021,-8.617989l8.916942,-0.000523zm15.760174,15.677916l0,0l0,-30.527107c0,-13.289559 -8.502253,-19.832007 -26.031953,-19.832007c-4.562111,0 -11.820163,0.51918 -13.7971,0.728421l0,12.044182c0,0 8.515984,-0.622492 13.38241,-0.622492c7.161148,0 10.575832,2.595898 10.575832,7.993927l0,3.94655l-10.161143,0c-19.700316,0 -29.667911,6.74855 -29.667911,20.143384c0,8.82553 5.612894,18.794171 21.469842,18.794171c12.456126,0 17.529701,-3.94655 19.091947,-5.81455l2.281121,4.775406l17.322421,-0.104621l0,-11.525395l-4.465468,0.000131zm-332.844347,-25.439016l0,0c0,15.990732 7.364373,25.646688 19.603411,25.646688c7.571783,0 12.861138,-3.114947 16.180488,-10.589956l18.151931,0c-3.319349,11.6291 -12.031759,23.673282 -34.747109,23.673282c-23.233876,0 -37.029537,-14.224998 -37.029537,-38.211096c0,-10.693661 3.526629,-20.45463 9.852774,-27.514688c6.846109,-7.476448 16.492911,-11.422867 27.902569,-11.422867c26.86421,0 34.332288,19.001843 34.332288,26.166914l-17.944521,0c-1.45161,-6.646284 -5.39306,-12.979752 -16.595177,-12.979752c-12.135333,0 -19.707116,9.657264 -19.707116,25.231475zm100.091028,9.7611l0,0l0,1.038359c0,7.476448 -1.548385,16.094437 -13.893874,16.094437c-6.019214,0 -9.856958,-3.322357 -9.856958,-8.514284c0,-4.465337 1.867739,-8.617989 14.83389,-8.617989l8.916942,-0.000523zm15.870811,15.677916l0,0l0,-30.527107c0,-13.289559 -8.502253,-19.832007 -26.031953,-19.832007c-4.562111,0 -11.825656,0.51918 -13.7971,0.728421l0,12.044182c0,0 8.502253,-0.622492 13.38241,-0.622492c7.161148,0 10.575832,2.595898 10.575832,7.993927l0,3.94655l-10.161143,0c-19.709993,0 -29.666472,6.74855 -29.666472,20.143384c0,8.82553 5.600339,18.794171 21.366137,18.794171c12.54453,0 17.631967,-3.94655 19.083578,-5.81455l2.391757,4.775406l17.322421,-0.104621l0,-11.525395l-4.465468,0.000131zm141.579233,-49.216134l0,0l12.760179,0l0,11.525395l-12.760179,0l0,31.046025c0,4.672878 1.037051,7.268907 6.856963,7.268907c2.073711,0 3.318042,-0.104621 4.244195,-0.209241l0,11.110182c-2.792585,0.935046 -6.746458,1.246293 -11.101159,1.246293c-11.405474,0 -16.285631,-5.191927 -16.285631,-17.132404l0,-33.330546l-4.658885,0l0,-11.525395l4.658885,0l0,-10.176182l16.285631,0l0,10.176967zm-50.819837,-25.647996l0,0l16.174995,0l0,17.133712l-16.174995,0l0,-17.133712zm-4.354701,25.647996l0,0l20.529696,0l0,60.845365l-16.174995,0l0,-49.31997l-4.354701,0l0,-11.525395z" id="path35196"/>
   </g>
  </g>
 </g>
</svg>