<svg width="400" height="400" xmlns="http://www.w3.org/2000/svg">
 <!-- Generator: Sketch 51.1 (57501) - http://www.bohemiancoding.com/sketch -->
 <title>COG-Logo</title>
 <desc>Created with Sketch.</desc>

 <g>
  <title>background</title>
  <rect fill="none" id="canvas_background" height="402" width="402" y="-1" x="-1"/>
 </g>
 <g>
  <title>Layer 1</title>
  <g fill-rule="evenodd" fill="none" id="Symbols">
   <g fill-rule="nonzero" fill="#0033A1" id="Branding/Logo/--Corporate/COG-Logo,-Blue">
    <path id="Combined-Shape" d="m229.307654,209.559199l23.545449,-22.930473l-23.189907,0l0,-10.797818l39.664365,0l0,10.974982l-23.548514,22.84189l23.996006,0l0,10.797819l-40.458204,0l-0.009195,-10.8864zm-16.728855,-48.402328l12.266192,0l0,11.100219l-12.266192,0l0,-11.100219zm-0.16551,14.808437l12.266192,0l0,44.614691l-12.266192,0l0,-44.614691zm-148.35901,22.172945c0.049046,-12.752036 10.453138,-23.054588 23.248937,-23.022033c12.795799,0.032554 23.146974,10.387909 23.130688,23.140029c-0.016285,12.75212 -10.393877,23.081183 -23.189718,23.081277c-6.168545,0.009037 -12.085756,-2.435109 -16.43923,-6.790341c-4.353474,-4.355233 -6.783343,-10.261537 -6.750677,-16.408932zm34.469164,0c0,-6.335127 -5.014365,-11.607272 -11.279257,-11.607272c-6.356842,0 -11.193436,5.266036 -11.193436,11.607272c0,6.341237 4.836594,11.607273 11.193436,11.607273c6.264892,-0.009164 11.282322,-5.272146 11.282322,-11.607273l-0.003065,0zm67.26483,-22.307345l12.180372,0l0,4.997236c2.862724,-3.665454 7.248761,-5.889163 12.352012,-5.889163c10.568173,0 16.925016,6.781091 16.925016,18.290618l0,27.216l-12.447028,0l0,-25.609309c0,-5.977746 -2.776904,-9.469091 -8.235697,-9.469091c-4.655758,0 -8.505418,3.210327 -8.505418,10.690909l0,24.36l-12.260062,0l-0.009195,-44.5872zm104.685604,22.307345c0,-15.795054 11.647059,-23.214545 21.76161,-23.214545c5.823529,0 10.387337,2.138182 13.338947,5.266036l0,-4.358836l12.260062,0l0,44.614691l-12.260062,0l0,-4.997237c-2.95161,3.479128 -7.699319,5.889164 -13.516718,5.889164c-9.492353,0 -21.583839,-7.483636 -21.583839,-23.199273zm35.453034,-0.088582c0,-6.603927 -4.83353,-11.958545 -11.460093,-11.958545c-6.804334,0 -11.996471,5.085818 -11.996471,11.958545c0,6.872728 5.192137,12.044073 11.996471,12.044073c6.632694,0 11.466223,-5.4432 11.466223,-12.044073l-0.00613,0zm16.86678,-22.218763l12.177307,0l0,4.997236c2.865789,-3.665454 7.251826,-5.889163 12.355077,-5.889163c10.565108,0 16.92195,6.781091 16.92195,18.290618l0,27.216l-12.447027,0l0,-25.609309c0,-5.977746 -2.758514,-9.469091 -8.235697,-9.469091c-4.655759,0 -8.505418,3.210327 -8.505418,10.690909l0,24.36l-12.260062,0l-0.00613,-44.5872zm-93.486037,44.614691l0,-10.8864l23.545449,-22.930473l-23.189907,0l0,-10.797818l39.664365,0l0,10.974982l-23.548514,22.84189m-194.809319,-11.897454l-0.168576,0.354327c-3.386842,7.114037 -9.614953,11.194909 -17.087461,11.194909c-10.83483,0 -19.309597,-8.5344 -19.309597,-19.426909c0,-11.170473 8.416532,-19.591854 19.579318,-19.591854c7.233437,0 12.72901,3.375272 16.336533,10.037236l0.193096,0.354327l10.917585,-6.9552l-0.183901,-0.305454c-5.670278,-9.624873 -15.86452,-15.370473 -27.263313,-15.370473c-18.215387,0 -31.949721,13.687418 -31.949721,31.837527c0,18.449455 13.437028,31.840582 31.949721,31.840582c11.932106,0 22.472694,-6.600872 28.198143,-17.655273l0.171641,-0.332945l-11.383468,-5.9808zm62.553901,0.387927c0,-15.795054 11.647059,-23.214545 21.76161,-23.214545c5.823529,0 10.384273,2.410036 13.338947,5.708945l0,-4.801745l12.260062,0l0,43.374545c0,12.581673 -7.96904,22.753309 -23.101021,22.753309c-11.371208,0 -19.69579,-5.892218 -23.294118,-12.850472l10.83483,-6.066328c2.326347,4.639855 6.436532,7.584437 12.443963,7.584437c6.626563,0 10.831764,-5.1744 10.831764,-10.974982l0,-4.203055c-2.954675,3.479128 -7.699319,5.889164 -13.516718,5.889164c-9.473963,0 -21.559319,-7.483636 -21.559319,-23.199273zm35.453034,-0.088582c0,-6.603927 -4.833529,-11.958545 -11.460093,-11.958545c-6.804334,0 -11.99647,5.085818 -11.99647,11.958545c0,6.872728 5.192136,12.044073 11.99647,12.044073c6.626564,0 11.460093,-5.4432 11.460093,-12.044073zm245.480155,-11.243781l0,-10.974982l-8.416532,0l0,-14.7168l-12.260062,0l0,14.7168l-7.616564,0l0,10.974982l7.601239,0l0,14.276945c0,14.545745 4.655758,19.362764 18.892755,19.362764l1.789969,0l0,-11.420946c-7.521548,0 -8.416533,-1.072145 -8.416533,-8.0304l0,-14.188363l8.425728,0zm2.602198,-20.367709c-0.586325,0.588329 -1.383969,0.919188 -2.216006,0.919188c-0.832037,0 -1.629681,-0.330859 -2.216006,-0.919188c-0.59855,-0.581089 -0.931043,-1.381869 -0.919505,-2.214546c0.002901,-1.411253 0.95639,-2.644691 2.32489,-3.007488c1.368501,-0.362798 2.810921,0.235469 3.51705,1.458754c0.706129,1.223285 0.499967,2.766689 -0.502683,3.76328l0.01226,0zm-4.119381,-4.108364c-0.513167,0.498438 -0.797081,1.185902 -0.784644,1.899927c-0.011653,0.716264 0.269361,1.406478 0.778514,1.912146c0.504154,0.506634 1.19047,0.791615 1.90644,0.791615c0.71597,0 1.402285,-0.284981 1.90644,-0.791615c0.513218,-0.503434 0.79683,-1.194584 0.784644,-1.912146c0.009005,-1.089864 -0.64619,-2.07626 -1.656417,-2.493736c-1.010226,-0.417477 -2.17358,-0.182596 -2.941107,0.593809l0.00613,0zm1.83901,0.174109c0.31748,-0.016303 0.635287,0.025098 0.937894,0.122182c0.351147,0.139291 0.568264,0.492455 0.533313,0.867491c0.018384,0.269322 -0.109016,0.527912 -0.334087,0.678109c-0.152678,0.087739 -0.321565,0.143843 -0.496532,0.164945c0.235197,0.023451 0.44923,0.145655 0.588483,0.336c0.116157,0.152371 0.181536,0.337157 0.186966,0.528437l0,0.253527c0,0.076364 0,0.161891 0,0.253527c0.000704,0.060061 0.009993,0.119715 0.027585,0.177164l0.021455,0.042763l-0.567028,0c-0.001443,-0.011153 -0.001443,-0.022446 0,-0.0336l0,-0.036654l0,-0.109964l0,-0.271854c0.041501,-0.300892 -0.082609,-0.600773 -0.324891,-0.785018c-0.212898,-0.089218 -0.443976,-0.126902 -0.674304,-0.109964l-0.478142,0l0,1.347054l-0.613003,0l0,-3.424145l1.192291,0zm0.652848,0.5376c-0.23049,-0.099948 -0.481801,-0.142913 -0.732539,-0.125236l-0.517987,0l0,1.240145l0.548637,0c0.195117,0.009213 0.390304,-0.016654 0.576223,-0.076364c0.195831,-0.087857 0.331247,-0.271439 0.356958,-0.483925c0.025711,-0.212487 -0.062032,-0.422888 -0.231292,-0.55462z"/>
   </g>
  </g>
 </g>
</svg>