<svg height="400" width="400" xmlns="http://www.w3.org/2000/svg"><path d="m-1-1h402v402h-402z" fill="none"/><path d="m229.307654 209.559199 23.545449-22.930473h-23.189907v-10.797818h39.664365v10.974982l-23.548514 22.84189h23.996006v10.797819h-40.458204zm-16.728855-48.402328h12.266192v11.100219h-12.266192zm-.16551 14.808437h12.266192v44.614691h-12.266192zm-148.35901 22.172945c.049046-12.752036 10.453138-23.054588 23.248937-23.022033 12.795799.032554 23.146974 10.387909 23.130688 23.140029-.016285 12.75212-10.393877 23.081183-23.189718 23.081277-6.168545.009037-12.085756-2.435109-16.43923-6.790341-4.353474-4.355233-6.783343-10.261537-6.750677-16.408932zm34.469164 0c0-6.335127-5.014365-11.607272-11.279257-11.607272-6.356842 0-11.193436 5.266036-11.193436 11.607272 0 6.341237 4.836594 11.607273 11.193436 11.607273 6.264892-.009164 11.282322-5.272146 11.282322-11.607273zm67.26483-22.307345h12.180372v4.997236c2.862724-3.665454 7.248761-5.889163 12.352012-5.889163 10.568173 0 16.925016 6.781091 16.925016 18.290618v27.216h-12.447028v-25.609309c0-5.977746-2.776904-9.469091-8.235697-9.469091-4.655758 0-8.505418 3.210327-8.505418 10.690909v24.36h-12.260062zm104.685604 22.307345c0-15.795054 11.647059-23.214545 21.76161-23.214545 5.823529 0 10.387337 2.138182 13.338947 5.266036v-4.358836h12.260062v44.614691h-12.260062v-4.997237c-2.95161 3.479128-7.699319 5.889164-13.516718 5.889164-9.492353 0-21.583839-7.483636-21.583839-23.199273zm35.453034-.088582c0-6.603927-4.83353-11.958545-11.460093-11.958545-6.804334 0-11.996471 5.085818-11.996471 11.958545 0 6.872728 5.192137 12.044073 11.996471 12.044073 6.632694 0 11.466223-5.4432 11.466223-12.044073zm16.86678-22.218763h12.177307v4.997236c2.865789-3.665454 7.251826-5.889163 12.355077-5.889163 10.565108 0 16.92195 6.781091 16.92195 18.290618v27.216h-12.447027v-25.609309c0-5.977746-2.758514-9.469091-8.235697-9.469091-4.655759 0-8.505418 3.210327-8.505418 10.690909v24.36h-12.260062zm-93.486037 44.614691v-10.8864l23.545449-22.930473h-23.189907v-10.797818h39.664365v10.974982l-23.548514 22.84189m-194.809319-11.897454-.168576.354327c-3.386842 7.114037-9.614953 11.194909-17.087461 11.194909-10.83483 0-19.309597-8.5344-19.309597-19.426909 0-11.170473 8.416532-19.591854 19.579318-19.591854 7.233437 0 12.72901 3.375272 16.336533 10.037236l.193096.354327 10.917585-6.9552-.183901-.305454c-5.670278-9.624873-15.86452-15.370473-27.263313-15.370473-18.215387 0-31.949721 13.687418-31.949721 31.837527 0 18.449455 13.437028 31.840582 31.949721 31.840582 11.932106 0 22.472694-6.600872 28.198143-17.655273l.171641-.332945zm62.553901.387927c0-15.795054 11.647059-23.214545 21.76161-23.214545 5.823529 0 10.384273 2.410036 13.338947 5.708945v-4.801745h12.260062v43.374545c0 12.581673-7.96904 22.753309-23.101021 22.753309-11.371208 0-19.69579-5.892218-23.294118-12.850472l10.83483-6.066328c2.326347 4.639855 6.436532 7.584437 12.443963 7.584437 6.626563 0 10.831764-5.1744 10.831764-10.974982v-4.203055c-2.954675 3.479128-7.699319 5.889164-13.516718 5.889164-9.473963 0-21.559319-7.483636-21.559319-23.199273zm35.453034-.088582c0-6.603927-4.833529-11.958545-11.460093-11.958545-6.804334 0-11.99647 5.085818-11.99647 11.958545 0 6.872728 5.192136 12.044073 11.99647 12.044073 6.626564 0 11.460093-5.4432 11.460093-12.044073zm245.480155-11.243781v-10.974982h-8.416532v-14.7168h-12.260062v14.7168h-7.616564v10.974982h7.601239v14.276945c0 14.545745 4.655758 19.362764 18.892755 19.362764h1.789969v-11.420946c-7.521548 0-8.416533-1.072145-8.416533-8.0304v-14.188363zm2.602198-20.367709c-.586325.588329-1.383969.919188-2.216006.919188s-1.629681-.330859-2.216006-.919188c-.59855-.581089-.931043-1.381869-.919505-2.214546.002901-1.411253.95639-2.644691 2.32489-3.007488 1.368501-.362798 2.810921.235469 3.51705 1.458754s.499967 2.766689-.502683 3.76328zm-4.119381-4.108364c-.513167.498438-.797081 1.185902-.784644 1.899927-.011653.716264.269361 1.406478.778514 1.912146.504154.506634 1.19047.791615 1.90644.791615s1.402285-.284981 1.90644-.791615c.513218-.503434.79683-1.194584.784644-1.912146.009005-1.089864-.64619-2.07626-1.656417-2.493736-1.010226-.417477-2.17358-.182596-2.941107.593809zm1.83901.174109c.31748-.016303.635287.025098.937894.122182.351147.139291.568264.492455.533313.867491.018384.269322-.109016.527912-.334087.678109-.152678.087739-.321565.143843-.496532.164945.235197.023451.44923.145655.588483.336.116157.152371.181536.337157.186966.528437v.253527.253527c.000704.060061.009993.119715.027585.177164l.021455.042763h-.567028c-.001443-.011153-.001443-.022446 0-.0336v-.036654-.109964-.271854c.041501-.300892-.082609-.600773-.324891-.785018-.212898-.089218-.443976-.126902-.674304-.109964h-.478142v1.347054h-.613003v-3.424145zm.652848.5376c-.23049-.099948-.481801-.142913-.732539-.125236h-.517987v1.240145h.548637c.195117.009213.390304-.016654.576223-.076364.195831-.087857.331247-.271439.356958-.483925.025711-.212487-.062032-.422888-.231292-.55462z" fill="#0033a1"/></svg>