<svg width="230" height="230" xmlns="http://www.w3.org/2000/svg">
 <!-- Created with Method Draw - http://github.com/duopixel/Method-Draw/ -->
 <g>
  <title>Layer 1</title>
 </g>
 <g>
  <title>background</title>
  <path stroke="null" id="FT-Pink" d="m226.304377,226.6275l-223.675,0l0,-223.6625l223.675,0l0,223.6625z" fill="#fcd0af"/>
  <path id="FT" d="m56.308125,119.6875c0,10.5625 2.8175,11.7375 14.8525,12.1875l0,3.8625l-47.83625,0l0,-3.8625c9.95125,-0.45 12.77375,-1.625 12.77375,-12.1875l0,-68.925c0,-10.5625 -2.8225,-11.75 -12.47625,-12.1875l0,-3.8625l84.38,0l0.600625,22.275l-4.16125,0c-3.56375,-11.2875 -7.43125,-14.85 -27.19,-14.85l-15.31,0c-4.59375,0 -5.63375,1.0375 -5.63375,5.2l0,31.95l7.53875,0c15.75125,0 19.17,-2.8375 21.09875,-13.3875l3.8625,0l0,35.6625l-3.8625,0c-2.075,-11.8875 -8.0225,-14.85 -21.09875,-14.85l-7.53875,0l0,32.975l0.000625,0zm147.25,-84.975l-88.55,0l-2.055625,22.2875l5.079375,0c3.24125,-10.9125 8.0075,-14.8625 18.66625,-14.8625l12.48125,0l0,77.55c0,10.5625 -2.8225,11.7375 -14.25875,12.1875l0,3.8625l48.73125,0l0,-3.8625c-11.44125,-0.45 -14.2625,-1.625 -14.2625,-12.1875l0,-77.55l12.475,0c10.66375,0 15.435,3.95 18.67125,14.8625l5.07375,0l-2.05125,-22.2875z" fill="#3e474f"/>
 </g>
</svg>