<svg width="400" height="400" xmlns="http://www.w3.org/2000/svg">

 <g>
  <title>background</title>
  <rect fill="none" id="canvas_background" height="402" width="402" y="-1" x="-1"/>
 </g>
 <g>
  <title>Layer 1</title>
  <path stroke="null" d="m44.708933,270.95478c-11.872795,-0.469687 -21.589436,-3.720798 -29.185148,-9.754803c-1.448689,-1.1522 -4.903821,-4.608799 -6.061892,-6.067763c-3.08085,-3.871979 -5.173891,-7.642681 -6.572676,-11.824359c-4.2991,-12.873815 -2.084234,-29.767853 6.326091,-48.310198c7.203818,-15.87247 18.319243,-31.614308 37.712895,-53.418039c2.854814,-3.208546 11.363479,-12.592003 11.416319,-12.592003c0.022017,0 -0.440331,0.804338 -1.024504,1.783341c-5.043259,8.444084 -9.357037,18.3941 -11.708405,27.004041c-3.775106,13.821995 -3.320097,25.678645 1.334203,34.875695c3.210014,6.334897 8.714153,11.822891 14.902274,14.856773c10.835082,5.308926 26.697277,5.747789 46.07038,1.284299c1.334203,-0.308232 67.423505,-17.852492 146.86805,-38.988387c79.44161,-21.135895 144.453568,-38.417425 144.463842,-38.401279c0.022017,0.017613 -184.570671,79.008617 -280.395535,119.985834c-15.176747,6.487546 -19.235132,8.125577 -26.367029,10.631062c-18.238516,6.403883 -34.574802,9.459781 -47.778865,8.935787z" id="nike_1_"/>
 </g>
</svg>